<?xml version="1.0" encoding="UTF-8" standalone="no"?>
<!DOCTYPE svg PUBLIC "-//W3C//DTD SVG 1.1//EN" "http://www.w3.org/Graphics/SVG/1.1/DTD/svg11.dtd">
<svg xmlns:dc="http://purl.org/dc/elements/1.1/" xmlns="http://www.w3.org/2000/svg" version="1.1" xmlns:xl="http://www.w3.org/1999/xlink" viewBox="42.161047 85.26813 54.04297 59" width="54.04297" height="59">
  <defs/>
  <g id="Canvas_1" fill="none" stroke-dasharray="none" fill-opacity="1" stroke="none" stroke-opacity="1">
    <title>Canvas 1</title>
    <g id="Canvas_1_Layer_1">
      <title>Layer 1</title>
      <g id="Group_27">
        <g id="Graphic_29">
          <path d="M 50.387016 90.25913 L 88.20402 90.25913 C 91.51802 90.25913 94.20402 92.90213 94.20402 96.16313 L 94.20402 133.37313 C 94.20402 136.63413 91.51802 139.27713 88.20402 139.27713 L 50.387016 139.27713 C 47.073016 139.27713 44.387016 136.63413 44.387016 133.37313 L 44.387016 96.16313 C 44.387016 92.90213 47.073016 90.25913 50.387016 90.25913 Z" fill="#c2d9e4"/>
        </g>
        <g id="Graphic_28">
          <path d="M 50.387016 90.25913 L 88.20402 90.25913 C 91.51802 90.25913 94.20402 92.90213 94.20402 96.16313 L 94.20402 133.37313 C 94.20402 136.63413 91.51802 139.27713 88.20402 139.27713 L 50.387016 139.27713 C 47.073016 139.27713 44.387016 136.63413 44.387016 133.37313 L 44.387016 96.16313 C 44.387016 92.90213 47.073016 90.25913 50.387016 90.25913 Z" fill="black" fill-opacity="0"/>
          <path d="M 50.387016 90.25913 L 88.20402 90.25913 C 91.51802 90.25913 94.20402 92.90213 94.20402 96.16313 L 94.20402 133.37313 C 94.20402 136.63413 91.51802 139.27713 88.20402 139.27713 L 50.387016 139.27713 C 47.073016 139.27713 44.387016 136.63413 44.387016 133.37313 L 44.387016 96.16313 C 44.387016 92.90213 47.073016 90.25913 50.387016 90.25913 Z" stroke="#073347" stroke-linecap="butt" stroke-linejoin="round" stroke-width="1"/>
        </g>
      </g>
      <g id="Graphic_30">
        <text transform="translate(47.161047 90.26813)" fill="#002a7e">
          <tspan font-family="VAGRounded" font-weight="bold" font-size="41" fill="#002a7e" x="0" y="40" xml:space="preserve">bk</tspan>
        </text>
      </g>
    </g>
  </g>
</svg>
