<?xml version="1.0" encoding="UTF-8" standalone="no"?>
<!DOCTYPE svg PUBLIC "-//W3C//DTD SVG 1.1//EN" "http://www.w3.org/Graphics/SVG/1.1/DTD/svg11.dtd">
<svg xmlns:dc="http://purl.org/dc/elements/1.1/" version="1.1" xmlns="http://www.w3.org/2000/svg" xmlns:xl="http://www.w3.org/1999/xlink" viewBox="1283.9958 1071.926 201.5 141" width="201.5" height="141">
  <defs/>
  <g id="Canvas_1" stroke="none" stroke-opacity="1" fill-opacity="1" stroke-dasharray="none" fill="none">
    <title>Canvas 1</title>
    <g id="Canvas_1_Layer_1">
      <title>Layer 1</title>
      <g id="Graphic_481">
        <rect x="1284.4958" y="1072.426" width="200.5" height="140" stroke="gray" stroke-linecap="round" stroke-linejoin="round" stroke-width="1"/>
      </g>
      <g id="Graphic_489">
        <rect x="1333.5" y="1112.964" width="46.5" height="4" fill="#ccc"/>
        <rect x="1333.5" y="1112.964" width="46.5" height="4" stroke="gray" stroke-linecap="round" stroke-linejoin="round" stroke-width="1"/>
      </g>
      <g id="Graphic_488">
        <rect x="1312.7747" y="1103.81" width="71.721" height="4" fill="#999"/>
        <rect x="1312.7747" y="1103.81" width="71.721" height="4" stroke="gray" stroke-linecap="round" stroke-linejoin="round" stroke-width="1"/>
      </g>
      <g id="Graphic_490">
        <rect x="1333.5" y="1122.118" width="46.5" height="4" fill="#ccc"/>
        <rect x="1333.5" y="1122.118" width="46.5" height="4" stroke="gray" stroke-linecap="round" stroke-linejoin="round" stroke-width="1"/>
      </g>
      <g id="Graphic_491">
        <rect x="1333.5" y="1131.272" width="46.5" height="4" fill="#ccc"/>
        <rect x="1333.5" y="1131.272" width="46.5" height="4" stroke="gray" stroke-linecap="round" stroke-linejoin="round" stroke-width="1"/>
      </g>
      <g id="Graphic_492">
        <rect x="1312.7747" y="1140.426" width="71.721" height="4" fill="#999"/>
        <rect x="1312.7747" y="1140.426" width="71.721" height="4" stroke="gray" stroke-linecap="round" stroke-linejoin="round" stroke-width="1"/>
      </g>
      <g id="Graphic_493">
        <rect x="1312.7747" y="1149.58" width="71.721" height="4" fill="#999"/>
        <rect x="1312.7747" y="1149.58" width="71.721" height="4" stroke="gray" stroke-linecap="round" stroke-linejoin="round" stroke-width="1"/>
      </g>
      <g id="Graphic_494">
        <rect x="1333.5" y="1158.734" width="46.5" height="4" fill="#ccc"/>
        <rect x="1333.5" y="1158.734" width="46.5" height="4" stroke="gray" stroke-linecap="round" stroke-linejoin="round" stroke-width="1"/>
      </g>
      <g id="Graphic_495">
        <rect x="1333.5" y="1167.888" width="46.5" height="4" fill="#ccc"/>
        <rect x="1333.5" y="1167.888" width="46.5" height="4" stroke="gray" stroke-linecap="round" stroke-linejoin="round" stroke-width="1"/>
      </g>
      <g id="Graphic_496">
        <rect x="1312.7747" y="1177.042" width="71.721" height="4" fill="#999"/>
        <rect x="1312.7747" y="1177.042" width="71.721" height="4" stroke="gray" stroke-linecap="round" stroke-linejoin="round" stroke-width="1"/>
      </g>
    </g>
  </g>
</svg>
