<?xml version="1.0" encoding="UTF-8" standalone="no"?>
<!DOCTYPE svg PUBLIC "-//W3C//DTD SVG 1.1//EN" "http://www.w3.org/Graphics/SVG/1.1/DTD/svg11.dtd">
<svg xmlns:dc="http://purl.org/dc/elements/1.1/" version="1.1" xmlns="http://www.w3.org/2000/svg" xmlns:xl="http://www.w3.org/1999/xlink" viewBox="618 340 201.5 141" width="201.5" height="141">
  <defs/>
  <g id="Canvas_1" stroke="none" stroke-opacity="1" fill-opacity="1" stroke-dasharray="none" fill="none">
    <title>Canvas 1</title>
    <g id="Canvas_1_Layer_1">
      <title>Layer 1</title>
      <g id="Group_177">
        <g id="Group_14">
          <g id="Graphic_7">
            <rect x="634.1685" y="347.5" width="46.5" height="4" fill="#ccc"/>
            <rect x="634.1685" y="347.5" width="46.5" height="4" stroke="gray" stroke-linecap="round" stroke-linejoin="round" stroke-width="1"/>
          </g>
          <g id="Graphic_13">
            <rect x="634.1685" y="356.5" width="60.5" height="4" fill="#999"/>
            <rect x="634.1685" y="356.5" width="60.5" height="4" stroke="gray" stroke-linecap="round" stroke-linejoin="round" stroke-width="1"/>
          </g>
        </g>
        <g id="Graphic_54">
          <rect x="618.5" y="340.5" width="200.5" height="140" stroke="gray" stroke-linecap="round" stroke-linejoin="round" stroke-width="1"/>
        </g>
        <g id="Group_94">
          <g id="Graphic_101">
            <title>Insert Photo</title>
            <path d="M 652.6685 383.89378 L 652.6685 368.3382 C 652.6685 367.116 651.6435 366.116 650.3907 366.116 L 634.4463 366.116 C 633.1935 366.116 632.1685 367.116 632.1685 368.3382 L 632.1685 383.89378 C 632.1685 385.116 633.1935 386.116 634.4463 386.116 L 650.3907 386.116 C 651.6435 386.116 652.6685 385.116 652.6685 383.89378 Z M 638.4324 377.78266 L 641.2796 381.1271 L 645.2657 376.116 L 650.3907 382.78266 L 634.4463 382.78266 L 638.4324 377.78266 Z" fill="#999"/>
          </g>
          <g id="Graphic_100">
            <title>Insert Photo</title>
            <path d="M 703.8895 383.89378 L 703.8895 368.3382 C 703.8895 367.116 702.8645 366.116 701.6117 366.116 L 685.6673 366.116 C 684.4145 366.116 683.3895 367.116 683.3895 368.3382 L 683.3895 383.89378 C 683.3895 385.116 684.4145 386.116 685.6673 386.116 L 701.6117 386.116 C 702.8645 386.116 703.8895 385.116 703.8895 383.89378 Z M 689.6534 377.78266 L 692.5006 381.1271 L 696.4867 376.116 L 701.6117 382.78266 L 685.6673 382.78266 L 689.6534 377.78266 Z" fill="#999"/>
          </g>
          <g id="Graphic_99">
            <title>Insert Photo</title>
            <path d="M 729.5 383.89378 L 729.5 368.3382 C 729.5 367.116 728.475 366.116 727.2222 366.116 L 711.2778 366.116 C 710.025 366.116 709 367.116 709 368.3382 L 709 383.89378 C 709 385.116 710.025 386.116 711.2778 386.116 L 727.2222 386.116 C 728.475 386.116 729.5 385.116 729.5 383.89378 Z M 715.2639 377.78266 L 718.1111 381.1271 L 722.0972 376.116 L 727.2222 382.78266 L 711.2778 382.78266 L 715.2639 377.78266 Z" fill="#999"/>
          </g>
          <g id="Graphic_98">
            <title>Insert Photo</title>
            <path d="M 679.279 383.89378 L 679.279 368.3382 C 679.279 367.116 678.254 366.116 677.0012 366.116 L 661.0568 366.116 C 659.804 366.116 658.779 367.116 658.779 368.3382 L 658.779 383.89378 C 658.779 385.116 659.804 386.116 661.0568 386.116 L 677.0012 386.116 C 678.254 386.116 679.279 385.116 679.279 383.89378 Z M 665.0429 377.78266 L 667.8901 381.1271 L 671.8762 376.116 L 677.0012 382.78266 L 661.0568 382.78266 L 665.0429 377.78266 Z" fill="#999"/>
          </g>
          <g id="Graphic_97">
            <title>Insert Photo</title>
            <path d="M 756.1105 383.89378 L 756.1105 368.3382 C 756.1105 367.116 755.0855 366.116 753.8327 366.116 L 737.8883 366.116 C 736.6355 366.116 735.6105 367.116 735.6105 368.3382 L 735.6105 383.89378 C 735.6105 385.116 736.6355 386.116 737.8883 386.116 L 753.8327 386.116 C 755.0855 386.116 756.1105 385.116 756.1105 383.89378 Z M 741.8744 377.78266 L 744.7216 381.1271 L 748.7077 376.116 L 753.8327 382.78266 L 737.8883 382.78266 L 741.8744 377.78266 Z" fill="#999"/>
          </g>
          <g id="Graphic_96">
            <title>Insert Photo</title>
            <path d="M 781.721 383.89378 L 781.721 368.3382 C 781.721 367.116 780.696 366.116 779.4432 366.116 L 763.4988 366.116 C 762.246 366.116 761.221 367.116 761.221 368.3382 L 761.221 383.89378 C 761.221 385.116 762.246 386.116 763.4988 386.116 L 779.4432 386.116 C 780.696 386.116 781.721 385.116 781.721 383.89378 Z M 767.4849 377.78266 L 770.3321 381.1271 L 774.3182 376.116 L 779.4432 382.78266 L 763.4988 382.78266 L 767.4849 377.78266 Z" fill="#999"/>
          </g>
          <g id="Graphic_95">
            <title>Insert Photo</title>
            <path d="M 807.3315 383.89378 L 807.3315 368.3382 C 807.3315 367.116 806.3065 366.116 805.0537 366.116 L 789.1093 366.116 C 787.8565 366.116 786.8315 367.116 786.8315 368.3382 L 786.8315 383.89378 C 786.8315 385.116 787.8565 386.116 789.1093 386.116 L 805.0537 386.116 C 806.3065 386.116 807.3315 385.116 807.3315 383.89378 Z M 793.0954 377.78266 L 795.9426 381.1271 L 799.9287 376.116 L 805.0537 382.78266 L 789.1093 382.78266 L 793.0954 377.78266 Z" fill="#999"/>
          </g>
        </g>
        <g id="Group_104">
          <g id="Graphic_111">
            <title>Insert Photo</title>
            <path d="M 652.6685 411.7778 L 652.6685 396.2222 C 652.6685 395 651.6435 394 650.3907 394 L 634.4463 394 C 633.1935 394 632.1685 395 632.1685 396.2222 L 632.1685 411.7778 C 632.1685 413 633.1935 414 634.4463 414 L 650.3907 414 C 651.6435 414 652.6685 413 652.6685 411.7778 Z M 638.4324 405.66667 L 641.2796 409.0111 L 645.2657 404 L 650.3907 410.66667 L 634.4463 410.66667 L 638.4324 405.66667 Z" fill="#999"/>
          </g>
          <g id="Graphic_110">
            <title>Insert Photo</title>
            <path d="M 703.8895 411.7778 L 703.8895 396.2222 C 703.8895 395 702.8645 394 701.6117 394 L 685.6673 394 C 684.4145 394 683.3895 395 683.3895 396.2222 L 683.3895 411.7778 C 683.3895 413 684.4145 414 685.6673 414 L 701.6117 414 C 702.8645 414 703.8895 413 703.8895 411.7778 Z M 689.6534 405.66667 L 692.5006 409.0111 L 696.4867 404 L 701.6117 410.66667 L 685.6673 410.66667 L 689.6534 405.66667 Z" fill="#999"/>
          </g>
          <g id="Graphic_109">
            <title>Insert Photo</title>
            <path d="M 729.5 411.7778 L 729.5 396.2222 C 729.5 395 728.475 394 727.2222 394 L 711.2778 394 C 710.025 394 709 395 709 396.2222 L 709 411.7778 C 709 413 710.025 414 711.2778 414 L 727.2222 414 C 728.475 414 729.5 413 729.5 411.7778 Z M 715.2639 405.66667 L 718.1111 409.0111 L 722.0972 404 L 727.2222 410.66667 L 711.2778 410.66667 L 715.2639 405.66667 Z" fill="#999"/>
          </g>
          <g id="Graphic_108">
            <title>Insert Photo</title>
            <path d="M 679.279 411.7778 L 679.279 396.2222 C 679.279 395 678.254 394 677.0012 394 L 661.0568 394 C 659.804 394 658.779 395 658.779 396.2222 L 658.779 411.7778 C 658.779 413 659.804 414 661.0568 414 L 677.0012 414 C 678.254 414 679.279 413 679.279 411.7778 Z M 665.0429 405.66667 L 667.8901 409.0111 L 671.8762 404 L 677.0012 410.66667 L 661.0568 410.66667 L 665.0429 405.66667 Z" fill="#999"/>
          </g>
          <g id="Graphic_107">
            <title>Insert Photo</title>
            <path d="M 756.1105 411.7778 L 756.1105 396.2222 C 756.1105 395 755.0855 394 753.8327 394 L 737.8883 394 C 736.6355 394 735.6105 395 735.6105 396.2222 L 735.6105 411.7778 C 735.6105 413 736.6355 414 737.8883 414 L 753.8327 414 C 755.0855 414 756.1105 413 756.1105 411.7778 Z M 741.8744 405.66667 L 744.7216 409.0111 L 748.7077 404 L 753.8327 410.66667 L 737.8883 410.66667 L 741.8744 405.66667 Z" fill="#999"/>
          </g>
          <g id="Graphic_106">
            <title>Insert Photo</title>
            <path d="M 781.721 411.7778 L 781.721 396.2222 C 781.721 395 780.696 394 779.4432 394 L 763.4988 394 C 762.246 394 761.221 395 761.221 396.2222 L 761.221 411.7778 C 761.221 413 762.246 414 763.4988 414 L 779.4432 414 C 780.696 414 781.721 413 781.721 411.7778 Z M 767.4849 405.66667 L 770.3321 409.0111 L 774.3182 404 L 779.4432 410.66667 L 763.4988 410.66667 L 767.4849 405.66667 Z" fill="#999"/>
          </g>
          <g id="Graphic_105">
            <title>Insert Photo</title>
            <path d="M 807.3315 411.7778 L 807.3315 396.2222 C 807.3315 395 806.3065 394 805.0537 394 L 789.1093 394 C 787.8565 394 786.8315 395 786.8315 396.2222 L 786.8315 411.7778 C 786.8315 413 787.8565 414 789.1093 414 L 805.0537 414 C 806.3065 414 807.3315 413 807.3315 411.7778 Z M 793.0954 405.66667 L 795.9426 409.0111 L 799.9287 404 L 805.0537 410.66667 L 789.1093 410.66667 L 793.0954 405.66667 Z" fill="#999"/>
          </g>
        </g>
        <g id="Group_112">
          <g id="Graphic_119">
            <title>Insert Photo</title>
            <path d="M 651.6685 439.6618 L 651.6685 424.1062 C 651.6685 422.884 650.6435 421.884 649.3907 421.884 L 633.4463 421.884 C 632.1935 421.884 631.1685 422.884 631.1685 424.1062 L 631.1685 439.6618 C 631.1685 440.884 632.1935 441.884 633.4463 441.884 L 649.3907 441.884 C 650.6435 441.884 651.6685 440.884 651.6685 439.6618 Z M 637.4324 433.55067 L 640.2796 436.8951 L 644.2657 431.884 L 649.3907 438.55067 L 633.4463 438.55067 L 637.4324 433.55067 Z" fill="#999"/>
          </g>
          <g id="Graphic_118">
            <title>Insert Photo</title>
            <path d="M 702.8895 439.6618 L 702.8895 424.1062 C 702.8895 422.884 701.8645 421.884 700.6117 421.884 L 684.6673 421.884 C 683.4145 421.884 682.3895 422.884 682.3895 424.1062 L 682.3895 439.6618 C 682.3895 440.884 683.4145 441.884 684.6673 441.884 L 700.6117 441.884 C 701.8645 441.884 702.8895 440.884 702.8895 439.6618 Z M 688.6534 433.55067 L 691.5006 436.8951 L 695.4867 431.884 L 700.6117 438.55067 L 684.6673 438.55067 L 688.6534 433.55067 Z" fill="#999"/>
          </g>
          <g id="Graphic_117">
            <title>Insert Photo</title>
            <path d="M 728.5 439.6618 L 728.5 424.1062 C 728.5 422.884 727.475 421.884 726.2222 421.884 L 710.2778 421.884 C 709.025 421.884 708 422.884 708 424.1062 L 708 439.6618 C 708 440.884 709.025 441.884 710.2778 441.884 L 726.2222 441.884 C 727.475 441.884 728.5 440.884 728.5 439.6618 Z M 714.2639 433.55067 L 717.1111 436.8951 L 721.0972 431.884 L 726.2222 438.55067 L 710.2778 438.55067 L 714.2639 433.55067 Z" fill="#999"/>
          </g>
          <g id="Graphic_116">
            <title>Insert Photo</title>
            <path d="M 678.279 439.6618 L 678.279 424.1062 C 678.279 422.884 677.254 421.884 676.0012 421.884 L 660.0568 421.884 C 658.804 421.884 657.779 422.884 657.779 424.1062 L 657.779 439.6618 C 657.779 440.884 658.804 441.884 660.0568 441.884 L 676.0012 441.884 C 677.254 441.884 678.279 440.884 678.279 439.6618 Z M 664.0429 433.55067 L 666.8901 436.8951 L 670.8762 431.884 L 676.0012 438.55067 L 660.0568 438.55067 L 664.0429 433.55067 Z" fill="#999"/>
          </g>
          <g id="Graphic_115">
            <title>Insert Photo</title>
            <path d="M 755.1105 439.6618 L 755.1105 424.1062 C 755.1105 422.884 754.0855 421.884 752.8327 421.884 L 736.8883 421.884 C 735.6355 421.884 734.6105 422.884 734.6105 424.1062 L 734.6105 439.6618 C 734.6105 440.884 735.6355 441.884 736.8883 441.884 L 752.8327 441.884 C 754.0855 441.884 755.1105 440.884 755.1105 439.6618 Z M 740.8744 433.55067 L 743.7216 436.8951 L 747.7077 431.884 L 752.8327 438.55067 L 736.8883 438.55067 L 740.8744 433.55067 Z" fill="#999"/>
          </g>
          <g id="Graphic_114">
            <title>Insert Photo</title>
            <path d="M 780.721 439.6618 L 780.721 424.1062 C 780.721 422.884 779.696 421.884 778.4432 421.884 L 762.4988 421.884 C 761.246 421.884 760.221 422.884 760.221 424.1062 L 760.221 439.6618 C 760.221 440.884 761.246 441.884 762.4988 441.884 L 778.4432 441.884 C 779.696 441.884 780.721 440.884 780.721 439.6618 Z M 766.4849 433.55067 L 769.3321 436.8951 L 773.3182 431.884 L 778.4432 438.55067 L 762.4988 438.55067 L 766.4849 433.55067 Z" fill="#999"/>
          </g>
          <g id="Graphic_113">
            <title>Insert Photo</title>
            <path d="M 806.3315 439.6618 L 806.3315 424.1062 C 806.3315 422.884 805.3065 421.884 804.0537 421.884 L 788.1093 421.884 C 786.8565 421.884 785.8315 422.884 785.8315 424.1062 L 785.8315 439.6618 C 785.8315 440.884 786.8565 441.884 788.1093 441.884 L 804.0537 441.884 C 805.3065 441.884 806.3315 440.884 806.3315 439.6618 Z M 792.0954 433.55067 L 794.9426 436.8951 L 798.9287 431.884 L 804.0537 438.55067 L 788.1093 438.55067 L 792.0954 433.55067 Z" fill="#999"/>
          </g>
        </g>
        <g id="Group_120">
          <g id="Graphic_127">
            <title>Insert Photo</title>
            <path d="M 650.6685 467.5458 L 650.6685 451.99023 C 650.6685 450.768 649.6435 449.768 648.3907 449.768 L 632.4463 449.768 C 631.1935 449.768 630.1685 450.768 630.1685 451.99023 L 630.1685 467.5458 C 630.1685 468.768 631.1935 469.768 632.4463 469.768 L 648.3907 469.768 C 649.6435 469.768 650.6685 468.768 650.6685 467.5458 Z M 636.4324 461.43467 L 639.2796 464.7791 L 643.2657 459.768 L 648.3907 466.43467 L 632.4463 466.43467 L 636.4324 461.43467 Z" fill="#999"/>
          </g>
          <g id="Graphic_126">
            <title>Insert Photo</title>
            <path d="M 701.8895 467.5458 L 701.8895 451.99023 C 701.8895 450.768 700.8645 449.768 699.6117 449.768 L 683.6673 449.768 C 682.4145 449.768 681.3895 450.768 681.3895 451.99023 L 681.3895 467.5458 C 681.3895 468.768 682.4145 469.768 683.6673 469.768 L 699.6117 469.768 C 700.8645 469.768 701.8895 468.768 701.8895 467.5458 Z M 687.6534 461.43467 L 690.5006 464.7791 L 694.4867 459.768 L 699.6117 466.43467 L 683.6673 466.43467 L 687.6534 461.43467 Z" fill="#999"/>
          </g>
          <g id="Graphic_125">
            <title>Insert Photo</title>
            <path d="M 727.5 467.5458 L 727.5 451.99023 C 727.5 450.768 726.475 449.768 725.2222 449.768 L 709.2778 449.768 C 708.025 449.768 707 450.768 707 451.99023 L 707 467.5458 C 707 468.768 708.025 469.768 709.2778 469.768 L 725.2222 469.768 C 726.475 469.768 727.5 468.768 727.5 467.5458 Z M 713.2639 461.43467 L 716.1111 464.7791 L 720.0972 459.768 L 725.2222 466.43467 L 709.2778 466.43467 L 713.2639 461.43467 Z" fill="#999"/>
          </g>
          <g id="Graphic_124">
            <title>Insert Photo</title>
            <path d="M 677.279 467.5458 L 677.279 451.99023 C 677.279 450.768 676.254 449.768 675.0012 449.768 L 659.0568 449.768 C 657.804 449.768 656.779 450.768 656.779 451.99023 L 656.779 467.5458 C 656.779 468.768 657.804 469.768 659.0568 469.768 L 675.0012 469.768 C 676.254 469.768 677.279 468.768 677.279 467.5458 Z M 663.0429 461.43467 L 665.8901 464.7791 L 669.8762 459.768 L 675.0012 466.43467 L 659.0568 466.43467 L 663.0429 461.43467 Z" fill="#999"/>
          </g>
          <g id="Graphic_123">
            <title>Insert Photo</title>
            <path d="M 754.1105 467.5458 L 754.1105 451.99023 C 754.1105 450.768 753.0855 449.768 751.8327 449.768 L 735.8883 449.768 C 734.6355 449.768 733.6105 450.768 733.6105 451.99023 L 733.6105 467.5458 C 733.6105 468.768 734.6355 469.768 735.8883 469.768 L 751.8327 469.768 C 753.0855 469.768 754.1105 468.768 754.1105 467.5458 Z M 739.8744 461.43467 L 742.7216 464.7791 L 746.7077 459.768 L 751.8327 466.43467 L 735.8883 466.43467 L 739.8744 461.43467 Z" fill="#999"/>
          </g>
          <g id="Graphic_122">
            <title>Insert Photo</title>
            <path d="M 779.721 467.5458 L 779.721 451.99023 C 779.721 450.768 778.696 449.768 777.4432 449.768 L 761.4988 449.768 C 760.246 449.768 759.221 450.768 759.221 451.99023 L 759.221 467.5458 C 759.221 468.768 760.246 469.768 761.4988 469.768 L 777.4432 469.768 C 778.696 469.768 779.721 468.768 779.721 467.5458 Z M 765.4849 461.43467 L 768.3321 464.7791 L 772.3182 459.768 L 777.4432 466.43467 L 761.4988 466.43467 L 765.4849 461.43467 Z" fill="#999"/>
          </g>
          <g id="Graphic_121">
            <title>Insert Photo</title>
            <path d="M 805.3315 467.5458 L 805.3315 451.99023 C 805.3315 450.768 804.3065 449.768 803.0537 449.768 L 787.1093 449.768 C 785.8565 449.768 784.8315 450.768 784.8315 451.99023 L 784.8315 467.5458 C 784.8315 468.768 785.8565 469.768 787.1093 469.768 L 803.0537 469.768 C 804.3065 469.768 805.3315 468.768 805.3315 467.5458 Z M 791.0954 461.43467 L 793.9426 464.7791 L 797.9287 459.768 L 803.0537 466.43467 L 787.1093 466.43467 L 791.0954 461.43467 Z" fill="#999"/>
          </g>
        </g>
      </g>
    </g>
  </g>
</svg>
