<?xml version="1.0" encoding="UTF-8" standalone="no"?>
<!DOCTYPE svg PUBLIC "-//W3C//DTD SVG 1.1//EN" "http://www.w3.org/Graphics/SVG/1.1/DTD/svg11.dtd">
<svg xmlns:dc="http://purl.org/dc/elements/1.1/" version="1.1" xmlns="http://www.w3.org/2000/svg" xmlns:xl="http://www.w3.org/1999/xlink" viewBox="618 28.077 201.5 141" width="201.5" height="141">
  <defs/>
  <g id="Canvas_1" stroke="none" stroke-opacity="1" fill-opacity="1" stroke-dasharray="none" fill="none">
    <title>Canvas 1</title>
    <g id="Canvas_1_Layer_1">
      <title>Layer 1</title>
      <g id="Graphic_22">
        <title>Subject</title>
        <path d="M 777.1875 121.78571 L 725 121.78571 L 725 127.5 L 777.1875 127.5 L 777.1875 121.78571 Z M 808.5 98.92857 L 725 98.92857 L 725 104.64286 L 808.5 104.64286 L 808.5 98.92857 Z M 725 116.07143 L 808.5 116.07143 L 808.5 110.35714 L 725 110.35714 L 725 116.07143 Z M 725 87.5 L 725 93.21429 L 808.5 93.21429 L 808.5 87.5 L 725 87.5 Z" fill="#ccc"/>
      </g>
      <g id="Graphic_47">
        <rect x="618.5" y="28.577" width="200.5" height="140" stroke="gray" stroke-linecap="round" stroke-linejoin="round" stroke-width="1"/>
      </g>
      <g id="Group_49">
        <g id="Graphic_51">
          <rect x="725" y="64" width="55.124405" height="4" fill="#ccc"/>
          <rect x="725" y="64" width="55.124405" height="4" stroke="gray" stroke-linecap="round" stroke-linejoin="round" stroke-width="1"/>
        </g>
        <g id="Graphic_50">
          <rect x="725" y="73" width="71.721" height="4" fill="#999"/>
          <rect x="725" y="73" width="71.721" height="4" stroke="gray" stroke-linecap="round" stroke-linejoin="round" stroke-width="1"/>
        </g>
      </g>
      <g id="Graphic_52">
        <title>Insert Photo</title>
        <path d="M 713 130.01711 L 713 67.13689 C 713 62.1963 708.825 58.154 703.7222 58.154 L 638.7778 58.154 C 633.675 58.154 629.5 62.1963 629.5 67.13689 L 629.5 130.01711 C 629.5 134.9577 633.675 139 638.7778 139 L 703.7222 139 C 708.825 139 713 134.9577 713 130.01711 Z M 655.0139 105.31417 L 666.6111 118.83341 L 682.8472 98.577 L 703.7222 125.52567 L 638.7778 125.52567 L 655.0139 105.31417 Z" fill="#999"/>
      </g>
    </g>
  </g>
</svg>
