<?xml version="1.0" encoding="UTF-8" standalone="no"?>
<!DOCTYPE svg PUBLIC "-//W3C//DTD SVG 1.1//EN" "http://www.w3.org/Graphics/SVG/1.1/DTD/svg11.dtd">
<svg xmlns:dc="http://purl.org/dc/elements/1.1/" version="1.1" xmlns="http://www.w3.org/2000/svg" xmlns:xl="http://www.w3.org/1999/xlink" viewBox="1281.5125 613.826 201.5 84.84799" width="201.5" height="84.84799">
  <defs/>
  <g id="Canvas_1" stroke="none" stroke-opacity="1" fill-opacity="1" stroke-dasharray="none" fill="none">
    <title>Canvas 1</title>
    <g id="Canvas_1_Layer_1">
      <title>Layer 1</title>
      <g id="Graphic_388">
        <rect x="1296.0205" y="630" width="52.5" height="52.5" fill="white"/>
        <rect x="1296.0205" y="630" width="52.5" height="52.5" stroke="gray" stroke-linecap="round" stroke-linejoin="round" stroke-width="1"/>
      </g>
      <g id="Graphic_383">
        <title>Subject</title>
        <path d="M 1436.6832 677.522 L 1384.4958 677.522 L 1384.4958 680 L 1436.6832 680 L 1436.6832 677.522 Z M 1467.9958 667.61 L 1384.4958 667.61 L 1384.4958 670.088 L 1467.9958 670.088 L 1467.9958 667.61 Z M 1384.4958 675.044 L 1467.9958 675.044 L 1467.9958 672.566 L 1384.4958 672.566 L 1384.4958 675.044 Z M 1384.4958 662.654 L 1384.4958 665.132 L 1467.9958 665.132 L 1467.9958 662.654 L 1384.4958 662.654 Z" fill="#ccc"/>
      </g>
      <g id="Graphic_382">
        <rect x="1282.0125" y="614.326" width="200.5" height="83.84799" stroke="gray" stroke-linecap="round" stroke-linejoin="round" stroke-width="1"/>
      </g>
      <g id="Group_379">
        <g id="Graphic_381">
          <rect x="1384.4958" y="642.654" width="55.124405" height="4" fill="#ccc"/>
          <rect x="1384.4958" y="642.654" width="55.124405" height="4" stroke="gray" stroke-linecap="round" stroke-linejoin="round" stroke-width="1"/>
        </g>
        <g id="Graphic_380">
          <rect x="1384.4958" y="651.654" width="71.721" height="4" fill="#999"/>
          <rect x="1384.4958" y="651.654" width="71.721" height="4" stroke="gray" stroke-linecap="round" stroke-linejoin="round" stroke-width="1"/>
        </g>
      </g>
      <g id="Graphic_385">
        <title>file_download</title>
        <text transform="translate(1299.8458 630.154)" fill="#aaa">
          <tspan font-family="Material Icons" font-size="38" fill="#aaa" x="2.2854996" y="38" xml:space="preserve"></tspan>
        </text>
      </g>
      <g id="Graphic_393">
        <path d="M 1309.9958 667.5 L 1375.4958 667.5 C 1380.4663 667.5 1384.4958 671.5294 1384.4958 676.5 L 1384.4958 681.8191 C 1384.4958 686.7896 1380.4663 690.8191 1375.4958 690.8191 L 1309.9958 690.8191 C 1305.0252 690.8191 1300.9958 686.7896 1300.9958 681.8191 L 1300.9958 676.5 C 1300.9958 671.5294 1305.0252 667.5 1309.9958 667.5 Z" fill="white"/>
        <path d="M 1309.9958 667.5 L 1375.4958 667.5 C 1380.4663 667.5 1384.4958 671.5294 1384.4958 676.5 L 1384.4958 681.8191 C 1384.4958 686.7896 1380.4663 690.8191 1375.4958 690.8191 L 1309.9958 690.8191 C 1305.0252 690.8191 1300.9958 686.7896 1300.9958 681.8191 L 1300.9958 676.5 C 1300.9958 671.5294 1305.0252 667.5 1309.9958 667.5 Z" stroke="gray" stroke-linecap="round" stroke-linejoin="round" stroke-width="1"/>
        <text transform="translate(1305.9958 671.4855)" fill="#a5a5a5">
          <tspan font-family="Helvetica Neue" font-weight="bold" font-size="12" fill="#a5a5a5" x="7.872" y="12" xml:space="preserve">Download</tspan>
        </text>
      </g>
    </g>
  </g>
</svg>
