<?xml version="1.0" encoding="UTF-8" standalone="no"?>
<!DOCTYPE svg PUBLIC "-//W3C//DTD SVG 1.1//EN" "http://www.w3.org/Graphics/SVG/1.1/DTD/svg11.dtd">
<svg xmlns:dc="http://purl.org/dc/elements/1.1/" version="1.1" xmlns="http://www.w3.org/2000/svg" xmlns:xl="http://www.w3.org/1999/xlink" viewBox="620 826.5 201.5 141" width="201.5" height="141">
  <defs/>
  <g id="Canvas_1" stroke="none" stroke-opacity="1" fill-opacity="1" stroke-dasharray="none" fill="none">
    <title>Canvas 1</title>
    <g id="Canvas_1_Layer_1">
      <title>Layer 1</title>
      <g id="Group_192">
        <g id="Graphic_42">
          <title>Insert Chart</title>
          <path d="M 787.7222 861.5 L 652.7778 861.5 C 642.175 861.5 633.5 865.85 633.5 871.1667 L 633.5 938.8333 C 633.5 944.15 642.175 948.5 652.7778 948.5 L 787.7222 948.5 C 798.325 948.5 807 944.15 807 938.8333 L 807 871.1667 C 807 865.85 798.325 861.5 787.7222 861.5 Z M 691.3333 929.1667 L 672.05556 929.1667 L 672.05556 895.3333 L 691.3333 895.3333 L 691.3333 929.1667 Z M 729.8889 929.1667 L 710.6111 929.1667 L 710.6111 880.8333 L 729.8889 880.8333 L 729.8889 929.1667 Z M 768.4444 929.1667 L 749.1667 929.1667 L 749.1667 909.8333 L 768.4444 909.8333 L 768.4444 929.1667 Z" fill="#999"/>
        </g>
        <g id="Graphic_186">
          <title>Trending Up</title>
          <path d="M 747.65 886 L 763.62275 894.7783 L 729.58475 913.485 L 701.68475 898.1517 L 650 926.595 L 659.83475 932 L 701.68475 909 L 729.58475 924.3333 L 773.52725 900.2217 L 789.5 909 L 789.5 886 Z" fill="#666"/>
        </g>
        <g id="Group_187">
          <g id="Graphic_191">
            <rect x="620.5" y="827" width="200.5" height="140" stroke="gray" stroke-linecap="round" stroke-linejoin="round" stroke-width="1"/>
          </g>
          <g id="Group_188">
            <g id="Graphic_190">
              <rect x="634.5" y="836.154" width="46.5" height="4" fill="#ccc"/>
              <rect x="634.5" y="836.154" width="46.5" height="4" stroke="gray" stroke-linecap="round" stroke-linejoin="round" stroke-width="1"/>
            </g>
            <g id="Graphic_189">
              <rect x="634.5" y="845.154" width="60.5" height="4" fill="#999"/>
              <rect x="634.5" y="845.154" width="60.5" height="4" stroke="gray" stroke-linecap="round" stroke-linejoin="round" stroke-width="1"/>
            </g>
          </g>
        </g>
      </g>
    </g>
  </g>
</svg>
