<?xml version="1.0" encoding="UTF-8" standalone="no"?>
<!DOCTYPE svg PUBLIC "-//W3C//DTD SVG 1.1//EN" "http://www.w3.org/Graphics/SVG/1.1/DTD/svg11.dtd">
<svg xmlns:dc="http://purl.org/dc/elements/1.1/" version="1.1" xmlns="http://www.w3.org/2000/svg" xmlns:xl="http://www.w3.org/1999/xlink" viewBox="1277.999 13 201.5 141" width="201.5" height="141">
  <defs/>
  <g id="Canvas_1" stroke="none" stroke-opacity="1" fill-opacity="1" stroke-dasharray="none" fill="none">
    <title>Canvas 1</title>
    <g id="Canvas_1_Layer_1">
      <title>Layer 1</title>
      <g id="Group_404">
        <g id="Graphic_255">
          <title>Subject</title>
          <path d="M 1349.5154 92.36901 L 1297.328 92.36901 L 1297.328 97.59384 L 1349.5154 97.59384 L 1349.5154 92.36901 Z M 1380.828 71.46967 L 1297.328 71.46967 L 1297.328 76.6945 L 1380.828 76.6945 L 1380.828 71.46967 Z M 1297.328 87.14417 L 1380.828 87.14417 L 1380.828 81.91934 L 1297.328 81.91934 L 1297.328 87.14417 Z M 1297.328 61.02 L 1297.328 66.24483 L 1380.828 66.24483 L 1380.828 61.02 L 1297.328 61.02 Z" fill="#ccc"/>
        </g>
        <g id="Graphic_254">
          <rect x="1288.329" y="33.326004" width="180.84015" height="83.84799" stroke="gray" stroke-linecap="round" stroke-linejoin="round" stroke-width="1"/>
        </g>
        <g id="Graphic_253">
          <rect x="1406.448" y="61.02" width="55.124405" height="4" stroke="gray" stroke-linecap="round" stroke-linejoin="round" stroke-width="1"/>
        </g>
        <g id="Graphic_397">
          <rect x="1406.448" y="73.09384" width="55.124405" height="4" stroke="gray" stroke-linecap="round" stroke-linejoin="round" stroke-width="1"/>
        </g>
        <g id="Graphic_398">
          <rect x="1406.448" y="84.59384" width="55.124405" height="4" stroke="gray" stroke-linecap="round" stroke-linejoin="round" stroke-width="1"/>
        </g>
        <g id="Graphic_399">
          <rect x="1406.448" y="96.09384" width="55.124405" height="4" stroke="gray" stroke-linecap="round" stroke-linejoin="round" stroke-width="1"/>
        </g>
        <g id="Graphic_400">
          <rect x="1278.499" y="13.5" width="200.5" height="140" stroke="gray" stroke-linecap="round" stroke-linejoin="round" stroke-width="1"/>
        </g>
        <g id="Graphic_401">
          <rect x="1293.329" y="39.94615" width="169.86301" height="13" fill="#ccc"/>
          <rect x="1293.329" y="39.94615" width="169.86301" height="13" stroke="gray" stroke-linecap="round" stroke-linejoin="round" stroke-width="1"/>
        </g>
        <g id="Graphic_402">
          <text transform="translate(1445.1565 41.498163)" fill="black">
            <tspan font-family="Helvetica Neue" font-size="8" fill="black" x="5382361e-19" y="8" xml:space="preserve">OK</tspan>
          </text>
        </g>
        <g id="Graphic_403">
          <text transform="translate(1302.328 41.498163)" fill="black">
            <tspan font-family="Helvetica Neue" font-size="8" fill="black" x="45474735e-20" y="8" xml:space="preserve">Änderungen speichern ?</tspan>
          </text>
        </g>
      </g>
    </g>
  </g>
</svg>
