<?xml version="1.0" encoding="UTF-8" standalone="no"?>
<!DOCTYPE svg PUBLIC "-//W3C//DTD SVG 1.1//EN" "http://www.w3.org/Graphics/SVG/1.1/DTD/svg11.dtd">
<svg xmlns:dc="http://purl.org/dc/elements/1.1/" version="1.1" xmlns="http://www.w3.org/2000/svg" xmlns:xl="http://www.w3.org/1999/xlink" viewBox="619 184.808 201.5 141" width="201.5" height="141">
  <defs/>
  <g id="Canvas_1" stroke="none" stroke-opacity="1" fill-opacity="1" stroke-dasharray="none" fill="none">
    <title>Canvas 1</title>
    <g id="Canvas_1_Layer_1">
      <title>Layer 1</title>
      <g id="Group_176">
        <g id="Group_103">
          <g id="Graphic_44">
            <rect x="619.5" y="185.308" width="200.5" height="140" stroke="gray" stroke-linecap="round" stroke-linejoin="round" stroke-width="1"/>
          </g>
          <g id="Graphic_62">
            <title>Insert Photo</title>
            <path d="M 809.5 281.17956 L 809.5 222.93644 C 809.5 218.3602 800.5 214.616 789.5 214.616 L 649.5 214.616 C 638.5 214.616 629.5 218.3602 629.5 222.93644 L 629.5 281.17956 C 629.5 285.7558 638.5 289.5 649.5 289.5 L 789.5 289.5 C 800.5 289.5 809.5 285.7558 809.5 281.17956 Z M 684.5 258.29833 L 709.5 270.8206 L 744.5 252.058 L 789.5 277.01933 L 649.5 277.01933 L 684.5 258.29833 Z" fill="#999"/>
          </g>
          <g id="Group_93">
            <g id="Graphic_63">
              <title>Insert Photo</title>
              <path d="M 653 316.77778 L 653 301.22222 C 653 300 651.975 299 650.7222 299 L 634.7778 299 C 633.525 299 632.5 300 632.5 301.22222 L 632.5 316.77778 C 632.5 318 633.525 319 634.7778 319 L 650.7222 319 C 651.975 319 653 318 653 316.77778 Z M 638.7639 310.66667 L 641.6111 314.0111 L 645.5972 309 L 650.7222 315.66667 L 634.7778 315.66667 L 638.7639 310.66667 Z" fill="#999"/>
            </g>
            <g id="Graphic_65">
              <title>Insert Photo</title>
              <path d="M 704.221 316.77778 L 704.221 301.22222 C 704.221 300 703.196 299 701.9432 299 L 685.9988 299 C 684.746 299 683.721 300 683.721 301.22222 L 683.721 316.77778 C 683.721 318 684.746 319 685.9988 319 L 701.9432 319 C 703.196 319 704.221 318 704.221 316.77778 Z M 689.9849 310.66667 L 692.8321 314.0111 L 696.8182 309 L 701.9432 315.66667 L 685.9988 315.66667 L 689.9849 310.66667 Z" fill="#999"/>
            </g>
            <g id="Graphic_66">
              <title>Insert Photo</title>
              <path d="M 729.8315 316.77778 L 729.8315 301.22222 C 729.8315 300 728.8065 299 727.5537 299 L 711.6093 299 C 710.3565 299 709.3315 300 709.3315 301.22222 L 709.3315 316.77778 C 709.3315 318 710.3565 319 711.6093 319 L 727.5537 319 C 728.8065 319 729.8315 318 729.8315 316.77778 Z M 715.5954 310.66667 L 718.4426 314.0111 L 722.4287 309 L 727.5537 315.66667 L 711.6093 315.66667 L 715.5954 310.66667 Z" fill="#999"/>
            </g>
            <g id="Graphic_73">
              <title>Insert Photo</title>
              <path d="M 679.6105 316.77778 L 679.6105 301.22222 C 679.6105 300 678.5855 299 677.3327 299 L 661.3883 299 C 660.1355 299 659.1105 300 659.1105 301.22222 L 659.1105 316.77778 C 659.1105 318 660.1355 319 661.3883 319 L 677.3327 319 C 678.5855 319 679.6105 318 679.6105 316.77778 Z M 665.3744 310.66667 L 668.2216 314.0111 L 672.2077 309 L 677.3327 315.66667 L 661.3883 315.66667 L 665.3744 310.66667 Z" fill="#999"/>
            </g>
            <g id="Graphic_76">
              <title>Insert Photo</title>
              <path d="M 756.442 316.77778 L 756.442 301.22222 C 756.442 300 755.417 299 754.1642 299 L 738.2198 299 C 736.967 299 735.942 300 735.942 301.22222 L 735.942 316.77778 C 735.942 318 736.967 319 738.2198 319 L 754.1642 319 C 755.417 319 756.442 318 756.442 316.77778 Z M 742.2059 310.66667 L 745.0531 314.0111 L 749.0392 309 L 754.1642 315.66667 L 738.2198 315.66667 L 742.2059 310.66667 Z" fill="#999"/>
            </g>
            <g id="Graphic_77">
              <title>Insert Photo</title>
              <path d="M 782.0525 316.77778 L 782.0525 301.22222 C 782.0525 300 781.0275 299 779.7747 299 L 763.8303 299 C 762.5775 299 761.5525 300 761.5525 301.22222 L 761.5525 316.77778 C 761.5525 318 762.5775 319 763.8303 319 L 779.7747 319 C 781.0275 319 782.0525 318 782.0525 316.77778 Z M 767.8164 310.66667 L 770.6636 314.0111 L 774.6497 309 L 779.7747 315.66667 L 763.8303 315.66667 L 767.8164 310.66667 Z" fill="#999"/>
            </g>
            <g id="Graphic_78">
              <title>Insert Photo</title>
              <path d="M 807.663 316.77778 L 807.663 301.22222 C 807.663 300 806.638 299 805.3852 299 L 789.4408 299 C 788.188 299 787.163 300 787.163 301.22222 L 787.163 316.77778 C 787.163 318 788.188 319 789.4408 319 L 805.3852 319 C 806.638 319 807.663 318 807.663 316.77778 Z M 793.4269 310.66667 L 796.2741 314.0111 L 800.2602 309 L 805.3852 315.66667 L 789.4408 315.66667 L 793.4269 310.66667 Z" fill="#999"/>
            </g>
          </g>
        </g>
        <g id="Group_143">
          <g id="Graphic_145">
            <rect x="634.1685" y="195" width="46.5" height="4" fill="#ccc"/>
            <rect x="634.1685" y="195" width="46.5" height="4" stroke="gray" stroke-linecap="round" stroke-linejoin="round" stroke-width="1"/>
          </g>
          <g id="Graphic_144">
            <rect x="634.1685" y="204" width="60.5" height="4" fill="#999"/>
            <rect x="634.1685" y="204" width="60.5" height="4" stroke="gray" stroke-linecap="round" stroke-linejoin="round" stroke-width="1"/>
          </g>
        </g>
      </g>
    </g>
  </g>
</svg>
