<?xml version="1.0" encoding="UTF-8" standalone="no"?>
<!DOCTYPE svg PUBLIC "-//W3C//DTD SVG 1.1//EN" "http://www.w3.org/Graphics/SVG/1.1/DTD/svg11.dtd">
<svg xmlns:dc="http://purl.org/dc/elements/1.1/" version="1.1" xmlns="http://www.w3.org/2000/svg" xmlns:xl="http://www.w3.org/1999/xlink" viewBox="1281.5125 725.0916 201.5 141" width="201.5" height="141">
  <defs/>
  <g id="Canvas_1" stroke="none" stroke-opacity="1" fill-opacity="1" stroke-dasharray="none" fill="none">
    <title>Canvas 1</title>
    <g id="Canvas_1_Layer_1">
      <title>Layer 1</title>
      <g id="Group_444">
        <g id="Graphic_413">
          <rect x="1428" y="776.0178" width="37.08598" height="4" fill="#ccc"/>
          <rect x="1428" y="776.0178" width="37.08598" height="4" stroke="gray" stroke-linecap="round" stroke-linejoin="round" stroke-width="1"/>
        </g>
        <g id="Graphic_412">
          <rect x="1428" y="784.0916" width="37.08598" height="4" fill="#ccc"/>
          <rect x="1428" y="784.0916" width="37.08598" height="4" stroke="gray" stroke-linecap="round" stroke-linejoin="round" stroke-width="1"/>
        </g>
        <g id="Graphic_411">
          <rect x="1428" y="793.5916" width="37.08598" height="4" fill="#ccc"/>
          <rect x="1428" y="793.5916" width="37.08598" height="4" stroke="gray" stroke-linecap="round" stroke-linejoin="round" stroke-width="1"/>
        </g>
        <g id="Graphic_410">
          <rect x="1299.8458" y="742.8701" width="67.15425" height="8.129934" stroke="gray" stroke-linecap="round" stroke-linejoin="round" stroke-width="1"/>
          <text transform="translate(1304.8458 742.837)" fill="black">
            <tspan font-family="Helvetica Neue" font-size="7" fill="black" x="16.712126" y="7" xml:space="preserve">Suchen</tspan>
          </text>
        </g>
        <g id="Graphic_409">
          <rect x="1282.0125" y="725.5916" width="200.5" height="140" stroke="gray" stroke-linecap="round" stroke-linejoin="round" stroke-width="1"/>
        </g>
        <g id="Graphic_408">
          <rect x="1296.8424" y="754.9439" width="169.86301" height="13" fill="#ccc"/>
          <rect x="1296.8424" y="754.9439" width="169.86301" height="13" stroke="gray" stroke-linecap="round" stroke-linejoin="round" stroke-width="1"/>
        </g>
        <g id="Graphic_407">
          <text transform="translate(1449.046 756.4959)" fill="black">
            <tspan font-family="Helvetica Neue" font-size="8" fill="black" x="33484326e-20" y="8" xml:space="preserve">asf</tspan>
          </text>
        </g>
        <g id="Graphic_406">
          <text transform="translate(1305.9957 756.3319)" fill="black">
            <tspan font-family="Helvetica Neue" font-size="8" fill="black" x="0" y="8" xml:space="preserve">Name</tspan>
          </text>
        </g>
        <g id="Graphic_416">
          <rect x="1382.0125" y="742.8701" width="31.192" height="8.129934" fill="#ccc"/>
          <rect x="1382.0125" y="742.8701" width="31.192" height="8.129934" stroke="gray" stroke-linecap="round" stroke-linejoin="round" stroke-width="1"/>
          <text transform="translate(1387.0125 741.823)" fill="black">
            <tspan font-family="Helvetica Neue" font-size="8" fill="black" x="4.2999997" y="8" xml:space="preserve">Tag</tspan>
          </text>
        </g>
        <g id="Graphic_418">
          <rect x="1421.4504" y="742.8701" width="45.255" height="8.129934" stroke="gray" stroke-linecap="round" stroke-linejoin="round" stroke-width="1"/>
          <text transform="translate(1426.4504 742.837)" fill="black">
            <tspan font-family="Helvetica Neue" font-size="7" fill="black" x="2.5915005" y="7" xml:space="preserve">Kategorie</tspan>
          </text>
        </g>
        <g id="Graphic_419">
          <text transform="translate(1387.7052 755)" fill="black">
            <tspan font-family="Helvetica Neue" font-size="8" fill="black" x="4369838e-19" y="8" xml:space="preserve">asd</tspan>
          </text>
        </g>
        <g id="Graphic_420">
          <rect x="1379.0655" y="775.3047" width="37.08598" height="4" fill="#ccc"/>
          <rect x="1379.0655" y="775.3047" width="37.08598" height="4" stroke="gray" stroke-linecap="round" stroke-linejoin="round" stroke-width="1"/>
        </g>
        <g id="Graphic_421">
          <rect x="1379.0655" y="783.3785" width="37.08598" height="4" fill="#ccc"/>
          <rect x="1379.0655" y="783.3785" width="37.08598" height="4" stroke="gray" stroke-linecap="round" stroke-linejoin="round" stroke-width="1"/>
        </g>
        <g id="Graphic_422">
          <rect x="1379.0655" y="792.8785" width="37.08598" height="4" fill="#ccc"/>
          <rect x="1379.0655" y="792.8785" width="37.08598" height="4" stroke="gray" stroke-linecap="round" stroke-linejoin="round" stroke-width="1"/>
        </g>
        <g id="Graphic_423">
          <rect x="1302.5883" y="774.5916" width="67.15425" height="4" fill="#ccc"/>
          <rect x="1302.5883" y="774.5916" width="67.15425" height="4" stroke="gray" stroke-linecap="round" stroke-linejoin="round" stroke-width="1"/>
        </g>
        <g id="Graphic_424">
          <rect x="1302.5883" y="782.6654" width="64.41174" height="4" fill="#ccc"/>
          <rect x="1302.5883" y="782.6654" width="64.41174" height="4" stroke="gray" stroke-linecap="round" stroke-linejoin="round" stroke-width="1"/>
        </g>
        <g id="Graphic_425">
          <rect x="1302.5883" y="792.1654" width="64.41174" height="4" fill="#ccc"/>
          <rect x="1302.5883" y="792.1654" width="64.41174" height="4" stroke="gray" stroke-linecap="round" stroke-linejoin="round" stroke-width="1"/>
        </g>
        <g id="Graphic_426">
          <rect x="1427.624" y="802.0916" width="37.08598" height="4" fill="#ccc"/>
          <rect x="1427.624" y="802.0916" width="37.08598" height="4" stroke="gray" stroke-linecap="round" stroke-linejoin="round" stroke-width="1"/>
        </g>
        <g id="Graphic_427">
          <rect x="1427.624" y="810.1654" width="37.08598" height="4" fill="#ccc"/>
          <rect x="1427.624" y="810.1654" width="37.08598" height="4" stroke="gray" stroke-linecap="round" stroke-linejoin="round" stroke-width="1"/>
        </g>
        <g id="Graphic_428">
          <rect x="1427.624" y="819.6654" width="37.08598" height="4" fill="#ccc"/>
          <rect x="1427.624" y="819.6654" width="37.08598" height="4" stroke="gray" stroke-linecap="round" stroke-linejoin="round" stroke-width="1"/>
        </g>
        <g id="Graphic_429">
          <rect x="1378.6895" y="801.3785" width="37.08598" height="4" fill="#ccc"/>
          <rect x="1378.6895" y="801.3785" width="37.08598" height="4" stroke="gray" stroke-linecap="round" stroke-linejoin="round" stroke-width="1"/>
        </g>
        <g id="Graphic_430">
          <rect x="1378.6895" y="809.4524" width="37.08598" height="4" fill="#ccc"/>
          <rect x="1378.6895" y="809.4524" width="37.08598" height="4" stroke="gray" stroke-linecap="round" stroke-linejoin="round" stroke-width="1"/>
        </g>
        <g id="Graphic_431">
          <rect x="1378.6895" y="818.9524" width="37.08598" height="4" fill="#ccc"/>
          <rect x="1378.6895" y="818.9524" width="37.08598" height="4" stroke="gray" stroke-linecap="round" stroke-linejoin="round" stroke-width="1"/>
        </g>
        <g id="Graphic_432">
          <rect x="1302.2123" y="800.6654" width="67.15425" height="4" fill="#ccc"/>
          <rect x="1302.2123" y="800.6654" width="67.15425" height="4" stroke="gray" stroke-linecap="round" stroke-linejoin="round" stroke-width="1"/>
        </g>
        <g id="Graphic_433">
          <rect x="1302.2123" y="808.7393" width="64.41174" height="4" fill="#ccc"/>
          <rect x="1302.2123" y="808.7393" width="64.41174" height="4" stroke="gray" stroke-linecap="round" stroke-linejoin="round" stroke-width="1"/>
        </g>
        <g id="Graphic_434">
          <rect x="1302.2123" y="818.2393" width="64.41174" height="4" fill="#ccc"/>
          <rect x="1302.2123" y="818.2393" width="64.41174" height="4" stroke="gray" stroke-linecap="round" stroke-linejoin="round" stroke-width="1"/>
        </g>
        <g id="Graphic_435">
          <rect x="1427.248" y="828.1654" width="37.08598" height="4" fill="#ccc"/>
          <rect x="1427.248" y="828.1654" width="37.08598" height="4" stroke="gray" stroke-linecap="round" stroke-linejoin="round" stroke-width="1"/>
        </g>
        <g id="Graphic_436">
          <rect x="1427.248" y="836.2393" width="37.08598" height="4" fill="#ccc"/>
          <rect x="1427.248" y="836.2393" width="37.08598" height="4" stroke="gray" stroke-linecap="round" stroke-linejoin="round" stroke-width="1"/>
        </g>
        <g id="Graphic_437">
          <rect x="1427.248" y="845.7393" width="37.08598" height="4" fill="#ccc"/>
          <rect x="1427.248" y="845.7393" width="37.08598" height="4" stroke="gray" stroke-linecap="round" stroke-linejoin="round" stroke-width="1"/>
        </g>
        <g id="Graphic_438">
          <rect x="1378.3135" y="827.4524" width="37.08598" height="4" fill="#ccc"/>
          <rect x="1378.3135" y="827.4524" width="37.08598" height="4" stroke="gray" stroke-linecap="round" stroke-linejoin="round" stroke-width="1"/>
        </g>
        <g id="Graphic_439">
          <rect x="1378.3135" y="835.5262" width="37.08598" height="4" fill="#ccc"/>
          <rect x="1378.3135" y="835.5262" width="37.08598" height="4" stroke="gray" stroke-linecap="round" stroke-linejoin="round" stroke-width="1"/>
        </g>
        <g id="Graphic_440">
          <rect x="1378.3135" y="845.0262" width="37.08598" height="4" fill="#ccc"/>
          <rect x="1378.3135" y="845.0262" width="37.08598" height="4" stroke="gray" stroke-linecap="round" stroke-linejoin="round" stroke-width="1"/>
        </g>
        <g id="Graphic_441">
          <rect x="1301.8363" y="826.7393" width="67.15425" height="4" fill="#ccc"/>
          <rect x="1301.8363" y="826.7393" width="67.15425" height="4" stroke="gray" stroke-linecap="round" stroke-linejoin="round" stroke-width="1"/>
        </g>
        <g id="Graphic_442">
          <rect x="1301.8363" y="834.8131" width="64.41174" height="4" fill="#ccc"/>
          <rect x="1301.8363" y="834.8131" width="64.41174" height="4" stroke="gray" stroke-linecap="round" stroke-linejoin="round" stroke-width="1"/>
        </g>
        <g id="Graphic_443">
          <rect x="1301.8363" y="844.3131" width="64.41174" height="4" fill="#ccc"/>
          <rect x="1301.8363" y="844.3131" width="64.41174" height="4" stroke="gray" stroke-linecap="round" stroke-linejoin="round" stroke-width="1"/>
        </g>
      </g>
    </g>
  </g>
</svg>
