<?xml version="1.0" encoding="UTF-8" standalone="no"?>
<!DOCTYPE svg PUBLIC "-//W3C//DTD SVG 1.1//EN" "http://www.w3.org/Graphics/SVG/1.1/DTD/svg11.dtd">
<svg xmlns:dc="http://purl.org/dc/elements/1.1/" version="1.1" xmlns="http://www.w3.org/2000/svg" xmlns:xl="http://www.w3.org/1999/xlink" viewBox="620 986 201.5 141" width="201.5" height="141">
  <defs/>
  <g id="Canvas_1" stroke="none" stroke-opacity="1" fill-opacity="1" stroke-dasharray="none" fill="none">
    <title>Canvas 1</title>
    <g id="Canvas_1_Layer_1">
      <title>Layer 1</title>
      <g id="Group_199">
        <g id="Group_180">
          <g id="Graphic_184">
            <rect x="620.5" y="986.5" width="200.5" height="140" stroke="gray" stroke-linecap="round" stroke-linejoin="round" stroke-width="1"/>
          </g>
          <g id="Group_181">
            <g id="Graphic_183">
              <rect x="634.5" y="995.654" width="46.5" height="4" fill="#ccc"/>
              <rect x="634.5" y="995.654" width="46.5" height="4" stroke="gray" stroke-linecap="round" stroke-linejoin="round" stroke-width="1"/>
            </g>
            <g id="Graphic_182">
              <rect x="634.5" y="1004.654" width="60.5" height="4" fill="#999"/>
              <rect x="634.5" y="1004.654" width="60.5" height="4" stroke="gray" stroke-linecap="round" stroke-linejoin="round" stroke-width="1"/>
            </g>
          </g>
        </g>
        <g id="Group_194">
          <desc>Switzerland
Helvetia
Schweiz
Schwiiz
Suisse
Svizzera
Svizra</desc>
          <a xl:href="http://en.wikipedia.org/wiki/Switzerland">
            <g id="Graphic_197">
              <path d="M 771.5042 1026.5985 C 766.9067 1025.7204 763.4417 1023.3315 759.3255 1021.8735 C 756.2825 1021.8735 753.897 1020.8951 750.87705 1020.6359 C 745.141 1023.5795 746.9668 1020.2455 742.6739 1018.7905 C 743.1516 1022.8242 739.0223 1019.872 740.2624 1017.7618 C 739.2382 1014.2411 733.25684 1016.2147 730.8584 1017.1429 C 728.5091 1020.0002 728.5549 1021.7201 732.7857 1022.0742 C 733.7215 1021.7564 734.7882 1025.0486 734.2319 1024.335 C 733.7641 1022.7209 729.4744 1025.5726 726.271 1025.5726 C 723.3294 1023.5209 722.73395 1023.4514 719.2786 1024.335 C 713.7096 1028.6084 709.9434 1022.9078 704.322 1026.395 C 700.70305 1026.3978 699.2765 1026.5622 701.1841 1023.7189 C 700.28105 1024.1063 699.5481 1024.544 698.5336 1024.544 C 695.8113 1025.3162 695.1406 1026.0855 695.3959 1028.4467 C 692.752 1030.4508 691.8587 1031.1199 688.3968 1031.1199 C 683.3054 1032.6894 683.6392 1028.0369 678.5086 1028.0369 C 676.24426 1027.4041 676.73844 1028.9372 677.0558 1030.2977 L 675.3674 1031.736 C 674.39236 1031.736 671.3951 1029.7233 668.712 1031.6551 C 670.0667 1032.812 667.25265 1034.0219 666.5197 1035.1285 C 665.1978 1037.1273 664.55 1038.783 664.1507 1039.1482 C 662.62274 1040.5614 671.2152 1040.1851 670.3154 1042.694 C 669.4155 1045.2028 665.4793 1045.2335 665.4793 1048.3835 C 660.08686 1051.4415 655.8266 1051.4498 655.8266 1057.223 C 654.66174 1059.0153 654.459 1063.5897 651.0069 1063.5897 C 646.92016 1065.3348 644.0112 1066.9125 644.0112 1070.5783 C 642.7775 1071.8912 638.9952 1075.5374 641.11224 1076.7444 C 642.7057 1078.1019 643.2946 1084.3517 639.91135 1084.3517 C 637.0058 1085.3413 634.761 1089.3916 637.73875 1089.0768 C 641.77974 1088.7672 641.7503 1088.2961 645.2121 1086.816 C 650.0253 1084.2068 643.76574 1084.0534 646.0006 1081.2129 C 646.0006 1078.8936 651.4323 1075.2336 656.7985 1074.0404 C 659.95275 1073.3408 661.844 1074.5507 665.9242 1074.5507 C 662.7732 1077.2349 667.1677 1079.1974 667.1677 1081.8819 C 669.2159 1085.33 666.2515 1086.6291 667.1677 1090.515 C 670.04715 1092.7257 670.9011 1093.7235 673.2012 1096.0651 C 673.97355 1097.5203 674.77196 1098.9531 675.6096 1100.3831 C 679.5982 1104.6258 682.4614 1100.7763 687.4349 1101.2027 C 692.1466 1100.7985 693.7074 1098.3566 698.5336 1098.7384 C 701.063 1100.896 705.7388 1103.0481 706.9756 1099.558 C 711.406 1097.5007 712.2796 1093.8824 716.1374 1092.5723 C 718.4868 1088.915 714.4817 1085.924 718.5522 1084.3517 C 720.5089 1082.6847 724.34375 1077.3604 726.752 1077.3604 C 731.80405 1076.9339 728.9247 1082.629 728.9247 1085.581 C 729.4711 1087.9115 734.425 1091.3012 737.131 1093.1856 C 738.4006 1094.0023 741.0771 1093.6929 742.91605 1094.0079 C 744.95455 1098.351 741.6529 1097.3307 746.0506 1102.025 C 748.4524 1106.0865 745.3242 1104.7066 750.1539 1106.75 C 753.1674 1103.324 748.3836 1100.3078 750.87705 1098.5294 C 750.0066 1097.0296 752.99715 1092.7312 754.4959 1091.134 C 757.9871 1089.3498 759.0997 1086.5623 760.533 1083.5295 C 759.8522 1080.3738 758.7627 1073.6585 764.3873 1076.5381 C 767.6528 1074.5953 767.3452 1079.5766 768.72935 1083.1169 C 775.1393 1087.0835 774.9529 1082.091 779.8249 1082.091 C 786.2056 1079.9083 785.5773 1083.7774 789.2353 1087.2258 C 795.64545 1089.2189 790.8715 1082.891 793.0964 1079.4177 C 787.3703 1077.9458 789.3533 1074.0545 790.9238 1070.3747 C 797.602 1067.5258 794.6638 1072.8391 801.0606 1072.8391 C 805.5467 1073.8816 806.3614 1069.4269 802.2647 1068.7329 C 800.7039 1065.0728 803.55395 1061.7946 804.4375 1058.0452 C 803.4951 1054.8897 805.3995 1053.5851 800.33425 1052.2861 C 797.8344 1054.9537 795.2396 1058.3435 791.4081 1059.2745 C 787.282 1057.8641 782.4296 1055.8877 781.9975 1051.879 C 778.9022 1050.2902 775.74135 1049.4092 772.1094 1049.4092 C 768.7556 1049.1528 767.0116 1050.7836 768.72935 1047.5639 C 768.3595 1044.4222 767.4401 1042.6186 769.6947 1039.753 C 771.7889 1037.2024 773.5588 1034.6015 774.0367 1031.736 C 774.0367 1030.0216 769.9826 1030.5485 771.5042 1026.5985" fill="#ccc"/>
              <path d="M 771.5042 1026.5985 C 766.9067 1025.7204 763.4417 1023.3315 759.3255 1021.8735 C 756.2825 1021.8735 753.897 1020.8951 750.87705 1020.6359 C 745.141 1023.5795 746.9668 1020.2455 742.6739 1018.7905 C 743.1516 1022.8242 739.0223 1019.872 740.2624 1017.7618 C 739.2382 1014.2411 733.25684 1016.2147 730.8584 1017.1429 C 728.5091 1020.0002 728.5549 1021.7201 732.7857 1022.0742 C 733.7215 1021.7564 734.7882 1025.0486 734.2319 1024.335 C 733.7641 1022.7209 729.4744 1025.5726 726.271 1025.5726 C 723.3294 1023.5209 722.73395 1023.4514 719.2786 1024.335 C 713.7096 1028.6084 709.9434 1022.9078 704.322 1026.395 C 700.70305 1026.3978 699.2765 1026.5622 701.1841 1023.7189 C 700.28105 1024.1063 699.5481 1024.544 698.5336 1024.544 C 695.8113 1025.3162 695.1406 1026.0855 695.3959 1028.4467 C 692.752 1030.4508 691.8587 1031.1199 688.3968 1031.1199 C 683.3054 1032.6894 683.6392 1028.0369 678.5086 1028.0369 C 676.24426 1027.4041 676.73844 1028.9372 677.0558 1030.2977 L 675.3674 1031.736 C 674.39236 1031.736 671.3951 1029.7233 668.712 1031.6551 C 670.0667 1032.812 667.25265 1034.0219 666.5197 1035.1285 C 665.1978 1037.1273 664.55 1038.783 664.1507 1039.1482 C 662.62274 1040.5614 671.2152 1040.1851 670.3154 1042.694 C 669.4155 1045.2028 665.4793 1045.2335 665.4793 1048.3835 C 660.08686 1051.4415 655.8266 1051.4498 655.8266 1057.223 C 654.66174 1059.0153 654.459 1063.5897 651.0069 1063.5897 C 646.92016 1065.3348 644.0112 1066.9125 644.0112 1070.5783 C 642.7775 1071.8912 638.9952 1075.5374 641.11224 1076.7444 C 642.7057 1078.1019 643.2946 1084.3517 639.91135 1084.3517 C 637.0058 1085.3413 634.761 1089.3916 637.73875 1089.0768 C 641.77974 1088.7672 641.7503 1088.2961 645.2121 1086.816 C 650.0253 1084.2068 643.76574 1084.0534 646.0006 1081.2129 C 646.0006 1078.8936 651.4323 1075.2336 656.7985 1074.0404 C 659.95275 1073.3408 661.844 1074.5507 665.9242 1074.5507 C 662.7732 1077.2349 667.1677 1079.1974 667.1677 1081.8819 C 669.2159 1085.33 666.2515 1086.6291 667.1677 1090.515 C 670.04715 1092.7257 670.9011 1093.7235 673.2012 1096.0651 C 673.97355 1097.5203 674.77196 1098.9531 675.6096 1100.3831 C 679.5982 1104.6258 682.4614 1100.7763 687.4349 1101.2027 C 692.1466 1100.7985 693.7074 1098.3566 698.5336 1098.7384 C 701.063 1100.896 705.7388 1103.0481 706.9756 1099.558 C 711.406 1097.5007 712.2796 1093.8824 716.1374 1092.5723 C 718.4868 1088.915 714.4817 1085.924 718.5522 1084.3517 C 720.5089 1082.6847 724.34375 1077.3604 726.752 1077.3604 C 731.80405 1076.9339 728.9247 1082.629 728.9247 1085.581 C 729.4711 1087.9115 734.425 1091.3012 737.131 1093.1856 C 738.4006 1094.0023 741.0771 1093.6929 742.91605 1094.0079 C 744.95455 1098.351 741.6529 1097.3307 746.0506 1102.025 C 748.4524 1106.0865 745.3242 1104.7066 750.1539 1106.75 C 753.1674 1103.324 748.3836 1100.3078 750.87705 1098.5294 C 750.0066 1097.0296 752.99715 1092.7312 754.4959 1091.134 C 757.9871 1089.3498 759.0997 1086.5623 760.533 1083.5295 C 759.8522 1080.3738 758.7627 1073.6585 764.3873 1076.5381 C 767.6528 1074.5953 767.3452 1079.5766 768.72935 1083.1169 C 775.1393 1087.0835 774.9529 1082.091 779.8249 1082.091 C 786.2056 1079.9083 785.5773 1083.7774 789.2353 1087.2258 C 795.64545 1089.2189 790.8715 1082.891 793.0964 1079.4177 C 787.3703 1077.9458 789.3533 1074.0545 790.9238 1070.3747 C 797.602 1067.5258 794.6638 1072.8391 801.0606 1072.8391 C 805.5467 1073.8816 806.3614 1069.4269 802.2647 1068.7329 C 800.7039 1065.0728 803.55395 1061.7946 804.4375 1058.0452 C 803.4951 1054.8897 805.3995 1053.5851 800.33425 1052.2861 C 797.8344 1054.9537 795.2396 1058.3435 791.4081 1059.2745 C 787.282 1057.8641 782.4296 1055.8877 781.9975 1051.879 C 778.9022 1050.2902 775.74135 1049.4092 772.1094 1049.4092 C 768.7556 1049.1528 767.0116 1050.7836 768.72935 1047.5639 C 768.3595 1044.4222 767.4401 1042.6186 769.6947 1039.753 C 771.7889 1037.2024 773.5588 1034.6015 774.0367 1031.736 C 774.0367 1030.0216 769.9826 1030.5485 771.5042 1026.5985" stroke="#666" stroke-linecap="round" stroke-linejoin="round" stroke-width=".5"/>
            </g>
            <g id="Graphic_196">
              <path d="M 655.0084 1072.3394 C 658.77785 1070.8229 664.9784 1073.4098 670.1385 1073.4098 C 670.1385 1077.0671 661.0029 1073.8446 655.8134 1075.9354 C 652.044 1077.4517 649.33465 1082.3329 644.1713 1082.3329 C 644.1713 1078.6756 649.81894 1074.43 655.0084 1072.3394 Z" fill="#ccc"/>
              <path d="M 655.0084 1072.3394 C 658.77785 1070.8229 664.9784 1073.4098 670.1385 1073.4098 C 670.1385 1077.0671 661.0029 1073.8446 655.8134 1075.9354 C 652.044 1077.4517 649.33465 1082.3329 644.1713 1082.3329 C 644.1713 1078.6756 649.81894 1074.43 655.0084 1072.3394 Z" stroke="#666" stroke-linecap="round" stroke-linejoin="round" stroke-width=".5"/>
            </g>
            <g id="Graphic_195">
              <path d="M 756.6748 1021.8739 C 757.7938 1018.0186 749.5743 1014.4227 753.7757 1015.5015 C 757.9215 1017.963 760.4573 1021.4139 765.8366 1021.8739 C 769.2395 1022.9248 773.0908 1025.7849 776.6933 1027.6275 C 768.7619 1028.5948 764.3936 1021.8739 756.6748 1021.8739 C 760.8173 1021.8739 776.5363 1028.2018 767.525 1029.4756 C 763.97805 1026.5738 760.7845 1024.1513 756.6748 1021.8739 Z" fill="#ccc"/>
              <path d="M 756.6748 1021.8739 C 757.7938 1018.0186 749.5743 1014.4227 753.7757 1015.5015 C 757.9215 1017.963 760.4573 1021.4139 765.8366 1021.8739 C 769.2395 1022.9248 773.0908 1025.7849 776.6933 1027.6275 C 768.7619 1028.5948 764.3936 1021.8739 756.6748 1021.8739 C 760.8173 1021.8739 776.5363 1028.2018 767.525 1029.4756 C 763.97805 1026.5738 760.7845 1024.1513 756.6748 1021.8739 Z" stroke="#666" stroke-linecap="round" stroke-linejoin="round" stroke-width=".5"/>
            </g>
          </a>
        </g>
        <g id="Graphic_198">
          <title>Place</title>
          <path d="M 743.5 1023 C 735.76 1023 729.5 1029.26 729.5 1037 C 729.5 1047.5 743.5 1063 743.5 1063 C 743.5 1063 757.5 1047.5 757.5 1037 C 757.5 1029.26 751.24 1023 743.5 1023 Z M 743.5 1042 C 740.74 1042 738.5 1039.76 738.5 1037 C 738.5 1034.24 740.74 1032 743.5 1032 C 746.26 1032 748.5 1034.24 748.5 1037 C 748.5 1039.76 746.26 1042 743.5 1042 Z" fill="#999"/>
        </g>
      </g>
    </g>
  </g>
</svg>
