<?xml version="1.0" encoding="UTF-8" standalone="no"?>
<!DOCTYPE svg PUBLIC "-//W3C//DTD SVG 1.1//EN" "http://www.w3.org/Graphics/SVG/1.1/DTD/svg11.dtd">
<svg xmlns:dc="http://purl.org/dc/elements/1.1/" version="1.1" xmlns="http://www.w3.org/2000/svg" xmlns:xl="http://www.w3.org/1999/xlink" viewBox="614 1470.75 201.5 141" width="201.5" height="141">
  <defs/>
  <g id="Canvas_1" stroke="none" stroke-opacity="1" fill-opacity="1" stroke-dasharray="none" fill="none">
    <title>Canvas 1</title>
    <g id="Canvas_1_Layer_1">
      <title>Layer 1</title>
      <g id="Group_241">
        <g id="Graphic_238">
          <title>Subject</title>
          <path d="M 776.1046 1558.5357 L 731.279 1558.5357 L 731.279 1564.25 L 776.1046 1564.25 L 776.1046 1558.5357 Z M 803 1535.6786 L 731.279 1535.6786 L 731.279 1541.3929 L 803 1541.3929 L 803 1535.6786 Z M 731.279 1552.8214 L 803 1552.8214 L 803 1547.1071 L 731.279 1547.1071 L 731.279 1552.8214 Z M 731.279 1524.25 L 731.279 1529.9643 L 803 1529.9643 L 803 1524.25 L 731.279 1524.25 Z" fill="#ccc"/>
        </g>
        <g id="Graphic_237">
          <rect x="614.5" y="1471.25" width="200.5" height="140" stroke="gray" stroke-linecap="round" stroke-linejoin="round" stroke-width="1"/>
        </g>
        <g id="Group_234">
          <g id="Graphic_236">
            <rect x="628" y="1487.808" width="55.124405" height="4" fill="#ccc"/>
            <rect x="628" y="1487.808" width="55.124405" height="4" stroke="gray" stroke-linecap="round" stroke-linejoin="round" stroke-width="1"/>
          </g>
          <g id="Graphic_235">
            <rect x="628" y="1496.808" width="71.721" height="4" fill="#999"/>
            <rect x="628" y="1496.808" width="71.721" height="4" stroke="gray" stroke-linecap="round" stroke-linejoin="round" stroke-width="1"/>
          </g>
        </g>
        <g id="Graphic_233">
          <title>Insert Photo</title>
          <path d="M 715.25 1574.8631 L 715.25 1525.9829 C 715.25 1522.1423 710.675 1519 705.0833 1519 L 633.9167 1519 C 628.325 1519 623.75 1522.1423 623.75 1525.9829 L 623.75 1574.8631 C 623.75 1578.7037 628.325 1581.846 633.9167 1581.846 L 705.0833 1581.846 C 710.675 1581.846 715.25 1578.7037 715.25 1574.8631 Z M 651.7083 1555.6602 L 664.4167 1566.1694 L 682.2083 1550.423 L 705.0833 1571.3717 L 633.9167 1571.3717 L 651.7083 1555.6602 Z" fill="#999"/>
        </g>
        <g id="Graphic_240">
          <title>Play Circle Fill</title>
          <path d="M 669.5 1531 C 662.186 1531 656.25 1536.936 656.25 1544.25 C 656.25 1551.564 662.186 1557.5 669.5 1557.5 C 676.814 1557.5 682.75 1551.564 682.75 1544.25 C 682.75 1536.936 676.814 1531 669.5 1531 Z M 666.85 1550.2125 L 666.85 1538.2875 L 674.8 1544.25 L 666.85 1550.2125 Z" fill="black"/>
        </g>
      </g>
    </g>
  </g>
</svg>
